# xmcd CD database file
#
# Track frame offsets:
#	150
#	11528
#	22898
#	32325
#	46258
#	60014
#	71725
#	81754
#	91686
#	99554
#	108728
#	117687
#	124831
#	133925
#	141139
#	148316
#	163420
#	176193
#	188916
#	199822
#	210847
#	219600
#	230641
#	241457
#	251375
#	259563
#	267747
#	279975
#	292272
#	301662
#	314766
#	327883
#	336201
#	343838
#
# Disc length: 4687 seconds
#
# Revision: 1
# Processed by: cddbd v1.5.2PL0 Copyright (c) Steve Scherf et al.
# Submitted via: CDex 1.78
#
DISCID=0c124d22
DTITLE=Tilmann Dehnhard - Jazz Studies for Flute
DYEAR=2008
DGENRE=Jazz
TTITLE0=Nice Shoes 1
TTITLE1=Nice Shoes 2
TTITLE2=Nice Shoes 3
TTITLE3=Bossa Bossa 1
TTITLE4=Bossa Bossa 2
TTITLE5=Bossa Bossa 3
TTITLE6=There She is 1
TTITLE7=There She is 2
TTITLE8=There She is 3
TTITLE9=Waiting for the Prince 1
TTITLE10=Waiting for the Prince 2
TTITLE11=Waiting for the Prince 3
TTITLE12=Almost Like 1
TTITLE13=Almost Like 2
TTITLE14=Almost Like 3
TTITLE15=Blues forLuis 1
TTITLE16=Blues forLuis 2
TTITLE17=Blues forLuis 3
TTITLE18=Med Blues 1
TTITLE19=Med Blues 2
TTITLE20=Med Blues 3
TTITLE21=All Things 1
TTITLE22=All Things 2
TTITLE23=All Things 3
TTITLE24=All Things 4
TTITLE25=All Things 5
TTITLE26=Whats's Up 1
TTITLE27=Whats's Up 2
TTITLE28=Whats's Up 3
TTITLE29=Big Leaps 1
TTITLE30=Big Leaps 2
TTITLE31=Big Leaps 3
TTITLE32=Big Leaps 4
TTITLE33=Big Leaps 5
EXTD=YEAR: 2008
EXTT0=
EXTT1=
EXTT2=
EXTT3=
EXTT4=
EXTT5=
EXTT6=
EXTT7=
EXTT8=
EXTT9=
EXTT10=
EXTT11=
EXTT12=
EXTT13=
EXTT14=
EXTT15=
EXTT16=
EXTT17=
EXTT18=
EXTT19=
EXTT20=
EXTT21=
EXTT22=
EXTT23=
EXTT24=
EXTT25=
EXTT26=
EXTT27=
EXTT28=
EXTT29=
EXTT30=
EXTT31=
EXTT32=
EXTT33=
PLAYORDER=
